<svg width="37" height="37" viewBox="0 0 37 37" fill="none" xmlns="http://www.w3.org/2000/svg">
<circle cx="18.5" cy="18.5" r="18.5" fill="black"/>
<path d="M15.4884 11.9335C15.4884 8.12485 17.2093 5.50114 20.6512 5.1626H24.5233V9.03469C22.8024 8.94549 19.7907 8.94549 19.7907 11.6161V14.4725V14.8957H24.5233V19.5507H19.7907V30.9766H15.4884V19.5507H10.7559V14.8957H15.4884V11.9335Z" fill="#FBF9F9"/>
<path d="M15.4884 19.5507V30.9766H19.7907V19.5507H24.5233V14.8957H19.7907V14.4725V11.6161C19.7907 8.94549 22.8024 8.94549 24.5233 9.03469V5.1626H20.6512C17.2093 5.50114 15.4884 8.12485 15.4884 11.9335V14.8957M15.4884 19.5507H10.7559V14.8957H15.4884M15.4884 19.5507V14.8957" stroke="#FBF9F9" stroke-width="0.5"/>
</svg>
