<svg width="210" height="138" viewBox="0 0 210 138" fill="none" xmlns="http://www.w3.org/2000/svg">
<path d="M40.8653 50.6352V3.897L48.5 1.5L209 24.7554V72.8455V81.7296V113.597L203 116.5L199 115.5V86.5L167.634 100.588V132.717L161.796 136L155.5 134.5V102.17L10.8412 79.2474V108.961L7.17161 111.086L1 109.541V77.6738V68.7897L40.8653 50.6352Z" fill="white"/>
<path d="M40.8653 50.6352V3.897M40.8653 50.6352L203 75V27.5M40.8653 50.6352L1 68.7897M40.8653 3.897L48.5 1.5L209 24.7554M40.8653 3.897L203 27.5M209 24.7554L203 27.5M209 24.7554V72.8455M209 72.8455L161.796 94.6695M209 72.8455V81.7296M161.796 94.6695L1 68.7897M161.796 94.6695V103.167M1 68.7897V77.6738M1 77.6738V109.541L7.17161 111.086M1 77.6738L7.00481 78.6395M161.796 103.167V136M161.796 103.167L167.634 100.588M161.796 103.167L155.5 102.17M161.796 103.167L199 86.5M161.796 103.167L10.8412 79.2474M161.796 103.167L7.00481 78.6395M209 81.7296L203 84.5M209 81.7296V113.597L203 116.5M161.796 136L167.634 132.717V100.588M161.796 136L155.5 134.5V102.17M167.634 100.588L199 86.5M155.5 102.17L10.8412 79.2474M203 116.5V84.5M203 116.5L199 115.5V86.5M203 84.5L199 86.5M7.17161 111.086L7.00481 78.6395M7.17161 111.086L10.8412 108.961V79.2474M7.00481 78.6395L10.8412 79.2474" stroke="black" stroke-width="2"/>
<path d="M156 62.5938V93L181.708 82.6215C192.059 78.0522 199.618 75.3927 198.96 63.2652C198.546 55.6259 188.954 49.5117 181.708 54.9557C181.708 43.0861 174.462 42.0151 170.925 42.0152C161.195 41.6582 156 47.5831 156 62.5938Z" fill="#FF1F1F" stroke="black" stroke-width="2"/>
<path d="M161.449 64.5361V94L185.522 83.9617C195.482 79.376 201.96 76.3254 201.327 64.1545C200.929 56.4878 192.494 50.7334 185.522 56.1968C185.522 44.2847 178.549 43.21 175.146 43.21C165.782 42.8517 161.449 49.9273 161.449 64.5361Z" fill="#FF1F1F" stroke="black" stroke-width="2"/>
<path d="M159 63V63.008L159 63.0161L159.481 92.8443L158.013 92.6345L158.499 59.0489C158.998 53.0893 159.902 49.6384 161.386 47.4659C162.571 45.7314 164.194 44.7186 166.591 43.9418C165.969 44.3839 165.405 44.9193 164.929 45.565C163.282 47.1282 159 52.1951 159 63Z" fill="#FF1F1F" stroke="#FF1F1F" stroke-width="2"/>
<path d="M1 37.5938V68L26.7077 57.6215C37.0592 53.0522 44.6175 50.3927 43.9602 38.2652C43.5461 30.6259 33.9538 24.5117 26.7077 29.9557C26.7077 18.0861 19.4617 17.0151 15.925 17.0152C6.19456 16.6582 1 22.5831 1 37.5938Z" fill="#FF1F1F" stroke="black" stroke-width="2"/>
<path d="M6.44971 39.5361V69L30.5218 58.9617C40.4827 54.376 46.96 51.3254 46.3275 39.1545C45.9291 31.4878 37.4944 25.7334 30.5218 31.1968C30.5218 19.2847 23.5492 18.21 20.1459 18.21C10.7827 17.8517 6.44971 24.9273 6.44971 39.5361Z" fill="#FF1F1F" stroke="black" stroke-width="2"/>
<path d="M4 38V38.008L4.00013 38.0161L4.48123 67.8443L3.01265 67.6345L3.4994 34.0489C3.99837 28.0893 4.90173 24.6384 6.38611 22.4659C7.57125 20.7314 9.194 19.7186 11.5909 18.9418C10.9686 19.3839 10.4053 19.9193 9.92933 20.565C8.28179 22.1282 4 27.1951 4 38Z" fill="#FF1F1F" stroke="#FF1F1F" stroke-width="2"/>
<path d="M170.5 41.5C173.5 41.5 180 42.5 181 44.5" stroke="black"/>
</svg>
